# xmcd
#
# Track frame offsets:
#	150
#	57808
#	107390
#	148675
#	183850
#
# Disc length: 2999 seconds
#
# Revision: 1
# Processed by: cddbd v1.5.2PL0 Copyright (c) Steve Scherf et al.
# Submitted via: audiograbber 1.83.01
#
DISCID=390bb505
DTITLE=Phil Woods - The Phil Woods Quartet`
DYEAR=1982
DGENRE=Jazz
TTITLE0=Springsville
TTITLE1=Prelude to a Kiss
TTITLE2=Long Ago and Far Away
TTITLE3=Very Early
TTITLE4=Webb City
EXTD=
EXTT0=
EXTT1=
EXTT2=
EXTT3=
EXTT4=
PLAYORDER=
